<svg width="24" height="24" viewBox="0 0 24 24" fill="none" xmlns="http://www.w3.org/2000/svg">
<path fill-rule="evenodd" clip-rule="evenodd" d="M1.70718 0.292908L0.292969 1.70712L3.58586 5.00001H3.00008C1.89551 5.00001 1.00008 5.89544 1.00008 7.00001V17C1.00008 18.1046 1.89551 19 3.00008 19H15.0001C15.7022 19 16.3198 18.6382 16.6767 18.0908L22.293 23.7071L23.7072 22.2929L1.70718 0.292908ZM15.0001 16.4142L5.58586 7.00001H3.00008V17H15.0001V16.4142ZM17.0001 8.38198L23.0001 5.38198V18.3701L21.0001 16.3701V8.61805L17.0001 10.618V13.0008L15.0001 11.0008V7.00001H10.9993L8.99929 5.00001H15.0001C16.1046 5.00001 17.0001 5.89544 17.0001 7.00001V8.38198Z" fill="#979798"/>
</svg>
