<svg width="24" height="24" viewBox="0 0 24 24" fill="none" xmlns="http://www.w3.org/2000/svg">
<path fill-rule="evenodd" clip-rule="evenodd" d="M6.85128 8.26554L1.29287 2.70714L2.70709 1.29292L22.7071 21.2929L21.2929 22.7071L18.7302 20.1445L19.206 22.9182L12 19.1298L4.794 22.9182L6.17022 14.8942L0.340454 9.21162L6.85128 8.26554ZM16.2809 17.6952L16.5497 19.2622L12 16.8703L7.45026 19.2622L8.31918 14.196L4.63838 10.6081L8.61587 10.0301L16.2809 17.6952ZM19.3616 10.6081L17.0629 12.8488L18.4772 14.2631L23.6595 9.21162L15.603 8.04094L12 0.740479L9.67188 5.45772L11.1652 6.95104L12 5.25958L14.2748 9.86895L19.3616 10.6081Z" fill="#979798"/>
</svg>
