<svg width="24" height="24" viewBox="0 0 24 24" fill="none" xmlns="http://www.w3.org/2000/svg">
<path fill-rule="evenodd" clip-rule="evenodd" d="M11.1759 11.53C11.7223 10.763 11.6614 9.9553 11.2824 8.50235C10.5331 5.62882 10.8315 4.05383 13.4148 2.18916L14.6757 1.27905L14.9807 2.80389C15.3048 4.42441 15.837 5.42671 17.2037 7.35464C17.258 7.43122 17.258 7.43122 17.3125 7.50815C19.2811 10.2854 20.0001 11.9596 20.0001 15C20.0001 18.6884 16.2714 22 12.0001 22C7.72849 22 4.00008 18.6888 4.00008 15C4.00008 14.9311 4.00015 14.9331 3.98847 14.6285C3.89811 12.2718 4.33389 10.4274 6.09715 8.43586C6.4697 8.01509 6.89316 7.61068 7.36971 7.22371L8.4217 6.36946L8.92774 7.62658C9.30166 8.55547 9.73978 9.28567 10.2347 9.82151C10.6539 10.2754 10.9648 10.8461 11.1759 11.53ZM7.59457 9.76166C6.2372 11.2947 5.91449 12.6606 5.987 14.5518C6.0005 14.9039 6.00008 14.8915 6.00008 15C6.00008 17.5279 8.78368 20 12.0001 20C15.2162 20 18.0001 17.5275 18.0001 15C18.0001 12.4582 17.4318 11.135 15.6808 8.6647C15.6266 8.58818 15.6266 8.58818 15.572 8.51125C14.5086 7.01111 13.8748 5.96759 13.4554 4.80052C12.7706 5.62118 12.8108 6.43739 13.2177 7.99766C13.9671 10.8712 13.6687 12.4462 11.0853 14.3108L9.61235 15.3741L9.50193 13.5608C9.43138 12.4023 9.16915 11.6156 8.76547 11.1785C8.36665 10.7467 8.00655 10.2411 7.68363 9.66279C7.65351 9.69566 7.62382 9.72862 7.59457 9.76166Z" fill="#979798"/>
</svg>
