<svg width="24" height="24" viewBox="0 0 24 24" fill="none" xmlns="http://www.w3.org/2000/svg">
<path fill-rule="evenodd" clip-rule="evenodd" d="M19.8097 10.2573C20.7597 9.2357 21.1932 8.35082 20.9488 7.82664C20.7042 7.30224 19.747 7.06555 18.3527 7.13687C19.048 8.04367 19.5534 9.10361 19.8097 10.2573ZM16.4342 5.34028C15.1651 4.49357 13.6402 4 12.0001 4C7.88088 4 4.48883 7.1132 4.04845 11.1151C1.64822 13.1736 0.452598 15.3374 1.23656 17.0186C2.02045 18.6996 4.44614 19.1747 7.56547 18.6594C8.83471 19.5063 10.3597 20 12.0001 20C16.1199 20 19.5125 16.8857 19.9519 12.8829C22.3505 10.825 23.5451 8.66206 22.7614 6.98141C21.9776 5.30067 19.5527 4.8255 16.4342 5.34028ZM8.05162 16.5178C6.79423 15.418 6.00006 13.8018 6.00006 12C6.00006 8.68629 8.68635 6 12.0001 6C15.2733 6 17.9343 8.62106 17.9989 11.8788C16.7276 12.8592 15.1124 13.8583 13.2668 14.7189C11.422 15.5792 9.61925 16.1741 8.05162 16.5178ZM10.7416 17.8678C11.8361 17.512 12.9696 17.0643 14.1121 16.5315C15.2553 15.9984 16.3275 15.4175 17.3041 14.8073C16.2969 16.7065 14.2995 18 12.0001 18C11.5684 18 11.1474 17.9544 10.7416 17.8678ZM5.64729 16.863C4.2519 16.9347 3.29383 16.698 3.04918 16.1734C2.8046 15.6489 3.23878 14.7632 4.18999 13.7408C4.44615 14.8952 4.95174 15.9558 5.64729 16.863Z" fill="#979798"/>
</svg>
