<svg width="24" height="24" viewBox="0 0 24 24" fill="none" xmlns="http://www.w3.org/2000/svg">
<path fill-rule="evenodd" clip-rule="evenodd" d="M19.6278 12C21.7206 15.4223 22.2462 18.7245 20.4853 20.4853C18.7245 22.2462 15.4223 21.7206 12 19.6278C8.57778 21.7206 5.2756 22.2462 3.51477 20.4853C1.75393 18.7245 2.27952 15.4223 4.37225 12C2.27952 8.57779 1.75393 5.2756 3.51477 3.51477C5.2756 1.75393 8.57779 2.27952 12 4.37225C15.4223 2.27952 18.7245 1.75393 20.4853 3.51477C22.2462 5.2756 21.7206 8.57778 19.6278 12ZM9.17162 9.17162C10.098 8.24524 11.0568 7.44249 12 6.77451C12.9433 7.44249 13.9021 8.24524 14.8285 9.17162C15.7549 10.098 16.5576 11.0568 17.2256 12C16.5576 12.9433 15.7549 13.9021 14.8285 14.8285C13.9021 15.7549 12.9433 16.5576 12 17.2256C11.0568 16.5576 10.098 15.7549 9.17162 14.8285C8.24524 13.9021 7.44249 12.9433 6.77451 12C7.44249 11.0568 8.24524 10.098 9.17162 9.17162ZM4.92898 4.92898C5.79046 4.0675 7.82056 4.36807 10.1707 5.63348C9.35217 6.26231 8.54125 6.97357 7.75741 7.75741C6.97357 8.54125 6.26231 9.35217 5.63348 10.1707C4.36807 7.82056 4.0675 5.79046 4.92898 4.92898ZM16.2427 7.75741C17.0265 8.54125 17.7378 9.35217 18.3666 10.1707C19.632 7.82056 19.9326 5.79046 19.0711 4.92898C18.2096 4.0675 16.1795 4.36807 13.8294 5.63348C14.6479 6.26231 15.4588 6.97357 16.2427 7.75741ZM16.2427 16.2427C17.0265 15.4588 17.7378 14.6479 18.3666 13.8294C19.632 16.1795 19.9326 18.2096 19.0711 19.0711C18.2096 19.9326 16.1795 19.632 13.8294 18.3666C14.6479 17.7378 15.4588 17.0265 16.2427 16.2427ZM5.63348 13.8294C6.26231 14.6479 6.97357 15.4588 7.75741 16.2427C8.54125 17.0265 9.35217 17.7378 10.1707 18.3666C7.82056 19.632 5.79046 19.9326 4.92898 19.0711C4.0675 18.2096 4.36807 16.1795 5.63348 13.8294ZM13 12C13 11.4478 12.5523 11 12 11C11.4478 11 11 11.4478 11 12C11 12.5523 11.4478 13 12 13C12.5523 13 13 12.5523 13 12Z" fill="#979798"/>
</svg>
