<svg width="24" height="24" viewBox="0 0 24 24" fill="none" xmlns="http://www.w3.org/2000/svg">
<path d="M22.6835 6.53527C23.8747 8.86414 24.2724 11.5185 23.8159 14.0942C23.3593 16.6699 22.0737 19.0259 20.1546 20.8035C18.2356 22.5811 15.7882 23.683 13.1852 23.9413C10.5821 24.1997 7.96589 23.6004 5.73486 22.2346C3.50383 20.8689 1.78017 18.8116 0.826284 16.3759C-0.127599 13.9401 -0.259454 11.2594 0.450793 8.74181C1.16104 6.22422 2.67448 4.00766 4.76072 2.42959C6.84695 0.85151 9.3917 -0.00164584 12.0076 2.38207e-06L12.0063 2.0249C9.83183 2.02353 7.71649 2.73272 5.98229 4.04451C4.24809 5.3563 2.99002 7.19883 2.39962 9.2916C1.80923 11.3844 1.91883 13.6127 2.71175 15.6375C3.50468 17.6622 4.93749 19.3724 6.79205 20.5076C8.64661 21.6429 10.8213 22.1411 12.9852 21.9263C15.149 21.7116 17.1834 20.7957 18.7786 19.318C20.3738 17.8403 21.4426 15.8819 21.822 13.7408C22.2015 11.5997 21.871 9.39329 20.8807 7.45739L22.6835 6.53527Z" fill="#979798"/>
</svg>
