<svg width="24" height="24" viewBox="0 0 24 24" fill="none" xmlns="http://www.w3.org/2000/svg">
<path fill-rule="evenodd" clip-rule="evenodd" d="M22 11.9991C22 10.3166 20.8696 8.99908 19 8.99908H15.927L15.9548 8.92336C15.9826 8.84828 16.0607 8.64225 16.1367 8.44198L16.137 8.44122L16.137 8.44116L16.1371 8.44085C16.2044 8.26353 16.2699 8.09093 16.2971 8.01799C16.4872 7.50764 16.626 7.09644 16.7382 6.68921C16.9079 6.07372 17 5.5192 17 4.99908C17 3.52708 16.0919 2.6128 14.7483 2.22157C14.1423 2.04511 13.6148 1.99899 13 1.99908H12.5205L12.2203 2.37297C11.8811 2.79532 11.215 3.55651 10.447 4.43409L10.447 4.4341L10.447 4.43411C9.03024 6.05302 7.2669 8.06799 6.57035 9.08248C6.38961 9.0288 6.19817 8.99998 6 8.99998H4C2.89543 8.99998 2 9.89541 2 11V20C2 21.1045 2.89543 22 4 22H6C6.68712 22 7.29331 21.6535 7.65337 21.1257C7.95674 21.3219 8.29522 21.4856 8.66312 21.6173C9.50544 21.9186 10.3408 22.0112 11.0344 21.9985L18 21.9991C20.7551 21.9991 22 17.9427 22 11.9991ZM9.33688 19.7342C8.45197 19.4176 8 18.9013 8 17.9991V11V10.9991C8 10.7589 8.04443 10.5462 8.14171 10.3191C8.31645 9.91108 9.90193 8.10222 11.4047 6.38776L11.4048 6.3876C12.1803 5.50281 12.9338 4.64317 13.46 4.01422C13.7114 4.03307 13.9484 4.07171 14.1891 4.14182C14.7622 4.30868 15 4.54811 15 4.99908C15 5.31567 14.9359 5.7014 14.8101 6.15769C14.7161 6.49866 14.5944 6.85945 14.4229 7.31975C14.3986 7.38494 14.3381 7.54449 14.2737 7.71431L14.2733 7.71536L14.2731 7.71571L14.2729 7.71626C14.1943 7.9234 14.1101 8.14533 14.079 8.22963C13.9489 8.58125 13.8633 8.84015 13.8047 9.0754C13.5555 10.0754 13.8055 10.9991 15 10.9991H19C19.6912 10.9991 20 11.359 20 11.9991C20 16.7898 19.0151 19.9991 18 19.9991H11L10.9631 19.9997C10.5254 20.0075 9.91062 19.9394 9.33688 19.7342ZM4 20V11H6V20H4Z" fill="#979798"/>
</svg>
