<svg width="24" height="24" viewBox="0 0 24 24" fill="none" xmlns="http://www.w3.org/2000/svg">
<path fill-rule="evenodd" clip-rule="evenodd" d="M2.70706 1.29285L1.29285 2.70706L5.28377 6.69798C4.13186 7.3251 3.0494 8.12593 2.07487 9.10046C2.04978 9.12554 2.02481 9.1507 1.99995 9.17593L3.41421 10.5902C3.43903 10.5649 3.46399 10.5398 3.48908 10.5147C4.47234 9.53142 5.58377 8.75446 6.7696 8.18381L8.24534 9.65955C6.97238 10.1464 5.77891 10.9029 4.75291 11.9289L6.16712 13.3431C7.21921 12.291 8.49142 11.5932 9.83551 11.2497L11.5903 13.0045C10.1335 13.0609 8.69346 13.6452 7.58133 14.7573L8.99555 16.1715C10.5576 14.6094 13.0903 14.6094 14.6524 16.1715L14.7049 16.1191L21.2928 22.7071L22.7071 21.2928L2.70706 1.29285ZM13.3271 9.11291L17.5191 13.3049L18.895 11.9289C17.3259 10.3597 15.365 9.42106 13.3271 9.11291ZM9.44352 5.2293L11.2367 7.02251C14.5159 6.82178 17.8618 7.96088 20.3841 10.4398L21.7984 9.02554C18.4242 5.70124 13.7826 4.43582 9.44352 5.2293ZM13.2382 17.5857C12.4571 16.8047 11.1908 16.8047 10.4098 17.5857L11.824 19L13.2382 17.5857Z" fill="#979798"/>
</svg>
